<svg id="Capa_1" data-name="Capa 1" xmlns="http://www.w3.org/2000/svg" viewBox="0 0 237 36.9"><defs><style>.cls-1{fill:#51e22d;}.cls-2{fill:#f7f9f7;}</style></defs><title>barra50</title><rect class="cls-1" x="0.5" y="0.5" width="236" height="35.9" rx="11.5"/><path d="M539,127.55a11,11,0,0,1,11,11v12.9a11,11,0,0,1-11,11H326a11,11,0,0,1-11-11v-12.9a11,11,0,0,1,11-11H539m0-1H326a12,12,0,0,0-12,12v12.9a12,12,0,0,0,12,12H539a12,12,0,0,0,12-12v-12.9a12,12,0,0,0-12-12Z" transform="translate(-314 -126.55)"/><rect class="cls-2" x="110.69" y="1.42" width="126.31" height="34.06" rx="12"/></svg>