<svg id="Capa_1" data-name="Capa 1" xmlns="http://www.w3.org/2000/svg" viewBox="0 0 285 44.37"><defs><style>.cls-1{fill:#51e22d;}.cls-2{fill:#f7f9f7;}</style></defs><title>barra75</title><rect class="cls-1" x="0.5" y="0.5" width="284" height="43.37" rx="11.5"/><path d="M564,127.81a11,11,0,0,1,11,11v20.38a11,11,0,0,1-11,11H303a11,11,0,0,1-11-11V138.81a11,11,0,0,1,11-11H564m0-1H303a12,12,0,0,0-12,12v20.38a12,12,0,0,0,12,12H564a12,12,0,0,0,12-12V138.81a12,12,0,0,0-12-12Z" transform="translate(-291 -126.81)"/><rect class="cls-2" x="196.26" y="1.71" width="87.04" height="40.96" rx="12"/></svg>