<svg id="Capa_1" data-name="Capa 1" xmlns="http://www.w3.org/2000/svg" viewBox="0 0 291 45.31"><defs><style>.cls-1{fill:#51e22d;}.cls-2{fill:#f7f9f7;}</style></defs><title>barra25</title><rect class="cls-1" x="0.5" y="0.5" width="290" height="44.31" rx="11.5"/><path d="M553,122.35a11,11,0,0,1,11,11v21.3a11,11,0,0,1-11,11H286a11,11,0,0,1-11-11v-21.3a11,11,0,0,1,11-11H553m0-1H286a12,12,0,0,0-12,12v21.3a12,12,0,0,0,12,12H553a12,12,0,0,0,12-12v-21.3a12,12,0,0,0-12-12Z" transform="translate(-274 -121.35)"/><rect class="cls-2" x="67.96" y="1.74" width="221.3" height="41.82" rx="12"/></svg>