<svg xmlns="http://www.w3.org/2000/svg" viewBox="0 0 702.78 279.82"><defs><style>.cls-1{fill:#2d2a2a;}.cls-2{fill:#1e1b1b;stroke:#000;stroke-miterlimit:10;}.cls-3{fill:#efe1e1;}.cls-4{font-size:72px;fill:#332f2f;font-family:Montserrat-Bold, Montserrat;font-weight:700;}.cls-5{letter-spacing:0.01em;}.cls-6{letter-spacing:0em;}.cls-7{letter-spacing:0em;}.cls-8{letter-spacing:-0.01em;}</style></defs><title>Marca personal</title><g id="Capa_2" data-name="Capa 2"><rect class="cls-1" y="258.63" width="138.71" height="21.19" rx="6.29"/><path class="cls-1" d="M518.65,315.3v-1.25H449.93v1.25c11.51,5.46,19.31,16.06,19.31,28.24s-7.8,22.79-19.31,28.25v1.92h68.72v-1.92c-11.5-5.46-19.3-16.06-19.3-28.25S507.15,320.76,518.65,315.3Z" transform="translate(-412.05 -230.5)"/><path class="cls-1" d="M499.38,423.34c0-22.08,14.78-41.15,36.21-50.19H438.72c20.06,9.43,33.69,27.87,33.69,49.07,0,28.91-25.34,52.68-57.8,55.48v11.43H548.19V477.47C520.17,471.47,499.38,449.52,499.38,423.34Z" transform="translate(-412.05 -230.5)"/><path class="cls-1" d="M521.22,305.68c-3.67-16-19.9-28-39.38-28s-35.7,12-39.37,28Z" transform="translate(-412.05 -230.5)"/><rect class="cls-1" x="22.48" y="75.18" width="95.04" height="8.92" rx="2.65"/><rect class="cls-1" x="65.81" y="7.74" width="8.58" height="39.56"/><ellipse class="cls-1" cx="69.77" cy="27.23" rx="7.92" ry="6.88"/><polygon class="cls-2" points="70.42 14.43 79.68 0.5 61.16 0.5 70.42 14.43"/><polygon class="cls-1" points="72.58 27.29 88.62 35.33 88.62 19.25 72.58 27.29"/><polygon class="cls-1" points="66.55 27.53 50.51 19.49 50.51 35.58 66.55 27.53"/><polygon class="cls-3" points="73.26 223.06 98.87 261.57 47.65 261.57 73.26 223.06"/><rect class="cls-3" x="47.73" y="259.9" width="50.94" height="11.12" rx="3.3"/><rect class="cls-3" x="66.85" y="215.76" width="12.82" height="23.55"/><ellipse class="cls-3" cx="73.71" cy="213.93" rx="10.73" ry="1.83"/><ellipse class="cls-3" cx="73.11" cy="201.53" rx="12.22" ry="10.61"/><text class="cls-4" transform="translate(150.83 170.16)">A<tspan class="cls-5" x="55.15" y="0">n</tspan><tspan class="cls-6" x="105.33" y="0">gel </tspan><tspan class="cls-7" x="243.21" y="0">R</tspan><tspan x="295.77" y="0">amí</tspan><tspan class="cls-8" x="437.4" y="0">r</tspan><tspan class="cls-7" x="467.78" y="0">e</tspan><tspan x="512.85" y="0">z</tspan></text></g></svg>